<svg className="h-9 hover:text-zinc-900 dark:hover:text-white" xmlns="http://www.w3.org/2000/svg" width="2858.6379" height="478.03201" viewBox="0 0 2858.6379 478.03201">
<g id="g26" transform="translate(-70.681,-1260.984)">
	<g id="g18">
		<path fill="currentColor" d="M 186.616,1473.797 H 289.842 V 1621.5 c 0,74.633 -38.122,117.516 -109.581,117.516 -71.464,0 -109.58,-42.877 -109.58,-117.516 v -242.994 c 0,-74.645 38.116,-117.522 109.58,-117.522 71.465,0 109.581,42.878 109.581,117.522 v 46.059 h -69.877 v -50.819 c 0,-33.342 -14.291,-46.045 -38.116,-46.045 -23.826,0 -38.11,12.703 -38.11,46.045 v 252.516 c 0,33.348 14.291,46.064 38.11,46.064 23.819,0 38.116,-12.717 38.116,-46.064 V 1540.5 h -33.349 z" id="path2"/>
		<path fill="currentColor" d="m 396.248,1580.211 -92.116,-312.866 h 76.232 l 55.587,212.813 55.581,-212.813 h 71.464 L 469.3,1580.211 v 155.631 h -73.052 z" id="path4"/>
		<path fill="currentColor" d="m 747.223,1599.262 50.819,-331.917 h 101.639 v 466.911 h -69.878 v -335.091 l -50.819,335.083 h -69.877 l -53.994,-330.329 v 330.329 h -63.529 v -466.909 h 101.64 z" id="path6"/>
		<path fill="currentColor" d="m 1052.145,1260.991 c 71.465,0 108,42.877 108,117.522 v 14.29 h -69.89 v -19.058 c 0,-33.342 -12.703,-46.045 -36.529,-46.045 -23.819,0 -36.522,12.703 -36.522,46.045 0,96.877 142.936,114.349 142.936,247.754 0,74.633 -38.123,117.516 -109.587,117.516 -71.465,0 -109.581,-42.877 -109.581,-117.516 v -28.594 h 69.878 v 33.355 c 0,33.342 14.296,46.059 38.122,46.059 23.825,0 38.109,-12.717 38.109,-46.059 0,-96.877 -142.929,-114.355 -142.929,-247.755 -0.001,-74.637 36.522,-117.514 107.993,-117.514 z" id="path8"/>
		<path fill="currentColor" d="m 1276.067,1734.256 h -73.045 v -466.911 h 73.045 v 200.104 h 84.174 v -200.104 h 74.646 v 466.911 h -74.646 v -200.104 h -84.174 z" id="path10"/>
		<path fill="currentColor" d="m 1725.513,1734.256 h -74.646 l -12.703,-84.176 h -90.522 l -12.703,84.176 h -66.703 l 74.639,-466.911 h 107.987 z m -166.762,-147.697 h 71.472 l -34.942,-236.639 z" id="path12"/>
		<path fill="currentColor" d="m 1912.913,1734.256 c -4.762,-12.717 -6.349,-19.053 -6.349,-57.162 v -73.059 c 0,-42.877 -14.304,-58.748 -47.646,-58.748 h -25.406 v 190.574 h -73.045 v -468.502 h 111.154 c 76.232,0 109.588,34.936 109.588,108 v 36.516 c 0,47.646 -15.891,79.406 -47.646,95.297 36.516,15.877 49.22,50.832 49.22,100.064 v 71.457 c 0,22.24 0,39.703 7.947,57.168 h -77.825 l 0.01,-1.605 z M 1833.5,1334.042 v 142.929 h 28.593 c 26.994,0 44.472,-12.71 44.472,-49.232 v -46.058 c 0,-33.354 -11.129,-47.646 -38.11,-47.646 l -34.955,0.01 z" id="path14"/>
		<path fill="currentColor" d="m 2124.139,1548.441 -22.239,42.879 v 142.928 h -73.045 v -466.916 h 73.045 v 203.277 l 96.878,-203.277 h 73.058 l -101.651,208.045 101.651,258.871 h -76.226 z" id="path16"/>
	</g>
	<g id="g24">
		<path fill="currentColor" d="m 2319.48,1268.933 c 203.284,0 406.574,0 609.839,0 0,0 -279.51,311.278 -420.852,465.323 0,0 11.122,-23.807 17.483,-33.342 -6.361,0 -12.723,-25.406 -20.651,-38.129 -7.936,4.773 -15.891,7.947 -23.826,11.121 -7.929,4.768 -12.703,3.188 -17.465,-6.328 -3.174,-7.949 -6.342,-17.479 -11.129,-25.412 -7.929,3.174 -27,14.303 -30.174,14.303 l -98.465,-41.303 c 1.588,0 49.232,-1.574 69.871,0 l 31.768,27.012 c 7.936,-7.928 14.291,-20.639 20.652,-27.012 h 17.464 c 6.349,6.359 12.703,17.477 19.052,25.412 7.936,-7.936 17.465,-17.465 23.826,-23.813 h 12.703 c 6.361,6.348 14.29,15.877 20.651,22.225 0,0 1.587,0 3.155,1.588 0,0 12.723,-14.291 17.477,-20.639 h 14.297 c 0,0 179.452,-269.994 181.052,-273.162 -144.515,-27.025 -436.728,-77.844 -436.728,-77.844 z" id="path20"/>
		<path fill="currentColor" d="m 2497.352,1429.333 -100.065,-55.587 c 58.749,14.29 119.117,28.587 177.871,41.297 z" id="path22"/>
	</g>
</g>
</svg>